# The bathers' teeth, gums and tongue: MakeHuman's teeth_base and
# tongue01 (CC0), cut and collapsed by tools/blender/teeth_lo.py.
# Positions in each asset's own space; see tools/face_parts.py.
o tooth
v 0.087654 6.163970 1.209051
v 0.117223 6.143484 1.240143
v 0.105400 6.146600 1.244200
v 0.112223 6.171747 1.208947
v 0.088508 6.164110 1.234753
v 0.096100 6.155700 1.246100
v 0.125800 6.171500 1.219200
v 0.131400 6.166700 1.227200
v 0.090285 6.220616 1.264515
v 0.083617 6.212702 1.237723
v 0.084247 6.194598 1.213847
v 0.136853 6.187561 1.247863
v 0.107738 6.203913 1.268439
v 0.120555 6.236518 1.239663
v 0.100967 6.233492 1.260023
v 0.124243 6.215117 1.218905
f 14 10 15
f 10 9 15
f 5 9 10
f 5 11 1
f 8 12 2
f 3 12 13
f 6 13 9
f 9 5 6
f 13 14 15
f 9 13 15
f 16 10 14
f 11 4 1
f 7 12 8
f 16 14 12
f 5 10 11
f 3 2 12
f 6 3 13
f 13 12 14
f 11 16 4
f 7 4 16
f 7 16 12
f 16 11 10
v 0.043569 6.160217 1.252502
v 0.052600 6.156600 1.230900
v 0.079309 6.138190 1.267563
v 0.079206 6.164655 1.232085
v 0.052737 6.157027 1.265143
v 0.088900 6.164700 1.245200
v 0.092300 6.159100 1.254500
v 0.047256 6.218369 1.282138
v 0.058696 6.228161 1.276748
v 0.050522 6.188427 1.234448
v 0.094557 6.204611 1.272762
v 0.068293 6.181205 1.288573
v 0.087680 6.230054 1.264153
v 0.064123 6.222563 1.284763
v 0.087328 6.202411 1.241661
f 31 25 29
f 23 27 19
f 28 19 27
f 21 28 24
f 30 27 29
f 26 20 18
f 22 27 23
f 24 25 26
f 24 30 25
f 17 21 24
f 17 24 26
f 21 19 28
f 30 28 27
f 30 29 25
f 26 31 20
f 26 18 17
f 22 20 31
f 22 31 27
f 31 26 25
f 24 28 30
f 31 29 27
v 0.004747 6.158785 1.258343
v 0.022000 6.155000 1.239700
v 0.025552 6.134849 1.283995
v 0.040581 6.160791 1.247727
v 0.007932 6.155394 1.272711
v 0.043900 6.160600 1.264800
v 0.044400 6.155500 1.274800
v -0.000913 6.218230 1.286975
v 0.004114 6.208681 1.269740
v 0.015619 6.187062 1.242399
v 0.040604 6.179627 1.297045
v 0.048890 6.223459 1.284954
v 0.015563 6.191881 1.298631
v 0.013004 6.229244 1.287772
v 0.046184 6.197725 1.260912
f 46 45 43
f 40 39 45
f 32 39 40
f 38 42 34
f 34 42 44
f 36 44 39
f 44 42 43
f 44 43 45
f 39 44 45
f 41 35 33
f 37 43 38
f 46 40 45
f 32 36 39
f 32 40 41
f 38 43 42
f 36 34 44
f 41 46 35
f 41 33 32
f 37 35 46
f 37 46 43
f 46 41 40
v 0.110541 6.182250 1.192998
v 0.120900 6.182600 1.173100
v 0.158649 6.173042 1.198754
v 0.137730 6.195680 1.158251
v 0.124900 6.181900 1.207400
v 0.140300 6.179200 1.211300
v 0.145190 6.200037 1.162333
v 0.117746 6.233863 1.220470
v 0.111804 6.243757 1.198604
v 0.126522 6.214693 1.226158
v 0.160951 6.250445 1.203688
v 0.147626 6.236537 1.233399
v 0.158098 6.235190 1.174816
v 0.135278 6.246636 1.178147
v 0.127083 6.221146 1.161225
f 47 51 56
f 49 59 57
f 52 58 56
f 58 49 57
f 56 51 52
f 57 54 58
f 54 60 55
f 47 50 48
f 59 61 60
f 53 59 49
f 59 53 61
f 54 47 56
f 55 47 54
f 52 49 58
f 57 60 54
f 61 55 60
f 47 61 50
f 53 50 61
f 47 55 61
f 56 58 54
f 60 57 59
v 0.139800 6.200400 1.137100
v 0.147535 6.207982 1.119599
v 0.187253 6.202354 1.126834
v 0.183482 6.193251 1.145338
v 0.146117 6.197248 1.160516
v 0.171365 6.195272 1.157976
v 0.136300 6.200500 1.150100
v 0.166893 6.223329 1.113675
v 0.157847 6.221825 1.108183
v 0.128149 6.247216 1.169011
v 0.137770 6.241875 1.119940
v 0.186043 6.268034 1.146216
v 0.175940 6.258313 1.176682
v 0.137877 6.270411 1.142361
v 0.151071 6.242406 1.177105
v 0.168585 6.269507 1.124791
f 72 71 75
f 68 72 62
f 69 73 64
f 74 64 73
f 67 65 74
f 74 77 76
f 75 76 77
f 72 77 70
f 67 76 66
f 71 66 76
f 71 68 66
f 68 71 72
f 69 77 73
f 74 65 64
f 74 73 77
f 72 75 77
f 70 63 72
f 63 62 72
f 69 70 77
f 67 74 76
f 76 75 71
v -0.087654 6.163970 1.209051
v -0.117223 6.143484 1.240143
v -0.105400 6.146600 1.244200
v -0.112223 6.171747 1.208947
v -0.088508 6.164110 1.234753
v -0.096100 6.155700 1.246100
v -0.125800 6.171500 1.219200
v -0.131400 6.166700 1.227200
v -0.090285 6.220616 1.264515
v -0.083617 6.212702 1.237723
v -0.084247 6.194598 1.213847
v -0.136853 6.187561 1.247863
v -0.107738 6.203913 1.268438
v -0.100967 6.233492 1.260023
v -0.120556 6.236518 1.239663
v -0.124243 6.215117 1.218905
f 86 87 91
f 86 82 87
f 82 88 87
f 89 80 90
f 90 83 86
f 82 86 83
f 92 90 91
f 81 88 78
f 84 89 93
f 93 87 88
f 92 91 87
f 82 78 88
f 85 79 89
f 89 79 80
f 90 80 83
f 92 89 90
f 86 91 90
f 93 92 87
f 81 93 88
f 93 81 84
f 84 85 89
f 93 89 92
v -0.043569 6.160217 1.252502
v -0.052600 6.156600 1.230900
v -0.079309 6.138190 1.267563
v -0.079206 6.164655 1.232085
v -0.052737 6.157027 1.265143
v -0.088900 6.164700 1.245200
v -0.092300 6.159100 1.254500
v -0.047256 6.218369 1.282138
v -0.058696 6.228161 1.276748
v -0.050522 6.188427 1.234448
v -0.094557 6.204611 1.272762
v -0.068293 6.181205 1.288573
v -0.064123 6.222563 1.284763
v -0.087680 6.230054 1.264153
v -0.087328 6.202411 1.241661
f 102 108 107
f 94 103 101
f 105 98 101
f 106 104 105
f 97 103 95
f 103 94 95
f 99 104 108
f 108 102 103
f 102 101 103
f 108 104 107
f 101 98 94
f 100 96 104
f 105 104 96
f 105 96 98
f 106 107 104
f 102 107 106
f 97 108 103
f 108 97 99
f 99 100 104
f 106 105 101
f 101 102 106
v -0.004747 6.158785 1.258343
v -0.022000 6.155000 1.239700
v -0.025552 6.134849 1.283995
v -0.040581 6.160791 1.247727
v -0.007932 6.155394 1.272711
v -0.043900 6.160600 1.264800
v -0.044400 6.155500 1.274800
v 0.000913 6.218230 1.286975
v -0.013004 6.229244 1.287772
v -0.004114 6.208681 1.269740
v -0.015619 6.187062 1.242399
v -0.040604 6.179627 1.297045
v -0.048890 6.223459 1.284954
v -0.015563 6.191881 1.298631
v -0.046184 6.197725 1.260912
f 117 123 121
f 116 118 117
f 116 109 118
f 109 119 118
f 115 120 121
f 120 111 122
f 122 113 116
f 121 122 117
f 112 119 110
f 119 109 110
f 114 121 123
f 123 118 119
f 117 118 123
f 116 113 109
f 115 111 120
f 122 111 113
f 122 121 120
f 116 117 122
f 112 123 119
f 123 112 114
f 114 115 121
v -0.110541 6.182250 1.192998
v -0.120900 6.182600 1.173100
v -0.158649 6.173042 1.198754
v -0.137730 6.195680 1.158251
v -0.124900 6.181900 1.207400
v -0.140300 6.179200 1.211300
v -0.145190 6.200037 1.162333
v -0.117746 6.233863 1.220470
v -0.111804 6.243757 1.198604
v -0.126522 6.214693 1.226158
v -0.160951 6.250445 1.203688
v -0.147626 6.236537 1.233399
v -0.158098 6.235190 1.174816
v -0.135278 6.246636 1.178147
v -0.127083 6.221146 1.161225
f 131 133 124
f 132 131 124
f 136 126 134
f 135 129 133
f 126 135 134
f 128 133 129
f 131 134 135
f 137 131 132
f 127 124 125
f 138 136 137
f 130 136 138
f 133 131 135
f 124 133 128
f 135 126 129
f 131 137 134
f 137 132 138
f 127 138 124
f 138 127 130
f 130 126 136
f 138 132 124
f 136 134 137
v -0.139800 6.200400 1.137100
v -0.147535 6.207982 1.119599
v -0.187253 6.202354 1.126834
v -0.183482 6.193251 1.145338
v -0.146117 6.197248 1.160516
v -0.171365 6.195272 1.157976
v -0.136300 6.200500 1.150100
v -0.166893 6.223329 1.113675
v -0.157847 6.221825 1.108183
v -0.151071 6.242406 1.177105
v -0.128149 6.247216 1.169011
v -0.137770 6.241874 1.119940
v -0.186043 6.268034 1.146216
v -0.175940 6.258313 1.176682
v -0.137877 6.270411 1.142361
v -0.168585 6.269507 1.124791
f 149 143 145
f 145 150 149
f 146 151 154
f 141 152 151
f 152 154 151
f 147 150 140
f 146 154 147
f 154 150 147
f 144 148 152
f 148 149 153
f 148 143 149
f 150 153 149
f 145 139 150
f 146 141 151
f 141 142 152
f 144 152 142
f 152 148 154
f 153 154 148
f 154 153 150
f 150 139 140
f 144 143 148
v 0.141600 6.322385 1.129209
v 0.127879 6.327339 1.153524
v 0.178473 6.332310 1.163323
v 0.159800 6.321900 1.128700
v 0.173900 6.324000 1.139200
v 0.144095 6.310952 1.174567
v 0.162660 6.315641 1.175984
v 0.178921 6.267175 1.125603
v 0.134929 6.265056 1.124208
v 0.139225 6.305882 1.113524
v 0.183838 6.296738 1.170710
v 0.193373 6.299201 1.136250
v 0.176995 6.257393 1.167023
v 0.127941 6.263837 1.157885
v 0.146996 6.283336 1.176253
f 164 162 163
f 161 165 157
f 165 161 169
f 157 165 166
f 166 165 167
f 166 158 159
f 167 162 166
f 156 155 164
f 156 168 169
f 156 164 168
f 166 162 164
f 164 155 158
f 159 157 166
f 166 164 158
f 162 167 168
f 163 162 168
f 160 156 169
f 168 164 163
f 160 169 161
f 169 167 165
f 168 167 169
v 0.124253 6.305487 1.179838
v 0.111425 6.309422 1.198908
v 0.162422 6.318784 1.209375
v 0.148938 6.304711 1.229016
v 0.148949 6.302279 1.187514
v 0.130061 6.294015 1.221101
v 0.163773 6.267432 1.167535
v 0.124438 6.247118 1.173601
v 0.118049 6.283948 1.173003
v 0.146159 6.268942 1.233935
v 0.171639 6.271202 1.223945
v 0.181802 6.282785 1.192672
v 0.173222 6.239050 1.202490
v 0.127873 6.246555 1.208654
v 0.112643 6.276414 1.205056
f 178 176 177
f 178 174 176
f 172 180 181
f 174 181 176
f 182 183 176
f 184 170 178
f 175 179 173
f 179 175 183
f 184 183 175
f 176 181 182
f 178 170 174
f 173 179 180
f 180 172 173
f 174 172 181
f 181 180 182
f 177 176 183
f 184 177 183
f 171 184 175
f 184 178 177
f 184 171 170
f 179 182 180
f 183 182 179
v 0.101913 6.305745 1.237657
v 0.141204 6.315136 1.260427
v 0.101283 6.294492 1.260197
v 0.129842 6.299155 1.230631
v 0.141100 6.304500 1.238200
v 0.116808 6.290216 1.265707
v 0.155887 6.261956 1.222544
v 0.145462 6.236977 1.223798
v 0.139520 6.259967 1.273954
v 0.159841 6.254839 1.243216
v 0.121862 6.247156 1.277803
v 0.136771 6.219405 1.241429
v 0.111289 6.236089 1.265363
v 0.107425 6.277892 1.234866
v 0.130583 6.266848 1.218422
f 199 188 191
f 188 198 185
f 190 193 186
f 189 194 191
f 193 194 186
f 193 195 196
f 191 188 189
f 196 192 194
f 199 197 198
f 187 198 197
f 199 192 196
f 198 187 185
f 188 199 198
f 190 195 193
f 189 186 194
f 193 196 194
f 196 195 197
f 192 191 194
f 199 196 197
f 190 187 197
f 190 197 195
f 191 192 199
v 0.071487 6.301568 1.252966
v 0.096686 6.311073 1.297319
v 0.060024 6.293960 1.277104
v 0.098040 6.291045 1.263422
v 0.105800 6.296600 1.276900
v 0.072085 6.288914 1.290132
v 0.113960 6.231363 1.268221
v 0.118803 6.245861 1.274732
v 0.080705 6.270586 1.251439
v 0.067757 6.251911 1.307292
v 0.104863 6.250777 1.300752
v 0.072903 6.220336 1.290775
v 0.099701 6.218032 1.274776
v 0.056702 6.257303 1.277783
v 0.063136 6.229127 1.286735
f 206 203 207
f 206 212 208
f 203 208 200
f 205 209 201
f 210 201 209
f 204 210 207
f 210 209 211
f 207 203 204
f 210 211 212
f 206 210 212
f 213 212 214
f 208 202 200
f 209 213 214
f 214 211 209
f 203 206 208
f 204 201 210
f 206 207 210
f 208 213 202
f 205 202 213
f 205 213 209
f 213 208 212
f 211 214 212
v 0.030839 6.309148 1.275625
v 0.032406 6.319575 1.310562
v 0.046700 6.315500 1.311200
v 0.005275 6.300979 1.282672
v 0.051987 6.295093 1.294361
v 0.010441 6.295273 1.297809
v 0.066792 6.247418 1.295013
v 0.063382 6.223624 1.288068
v 0.038424 6.271147 1.269451
v 0.006020 6.248419 1.316155
v 0.045738 6.264740 1.318351
v 0.000775 6.216954 1.294539
v 0.013193 6.207705 1.296333
v 0.053409 6.210823 1.296853
v 0.000351 6.257577 1.279035
f 219 223 215
f 220 224 216
f 225 216 224
f 219 225 221
f 225 224 228
f 222 228 227
f 229 222 226
f 223 218 215
f 224 229 226
f 221 222 223
f 226 222 227
f 219 221 223
f 217 216 225
f 219 217 225
f 226 227 224
f 224 227 228
f 222 221 228
f 229 223 222
f 223 229 218
f 220 218 229
f 220 229 224
f 221 225 228
v -0.141600 6.322385 1.129209
v -0.127879 6.327339 1.153524
v -0.178473 6.332310 1.163323
v -0.159800 6.321900 1.128700
v -0.173900 6.324000 1.139200
v -0.144095 6.310952 1.174567
v -0.162660 6.315641 1.175984
v -0.178921 6.267175 1.125603
v -0.134929 6.265056 1.124208
v -0.139225 6.305882 1.113524
v -0.183838 6.296738 1.170710
v -0.193373 6.299201 1.136250
v -0.176995 6.257393 1.167023
v -0.146996 6.283336 1.176253
v -0.127941 6.263837 1.157886
f 237 239 238
f 239 233 230
f 240 232 241
f 240 241 242
f 233 241 234
f 237 242 241
f 237 244 242
f 244 238 239
f 235 236 243
f 244 231 243
f 243 240 242
f 236 232 240
f 240 243 236
f 241 232 234
f 233 239 241
f 244 237 238
f 243 231 235
f 231 239 230
f 231 244 239
f 241 239 237
f 243 242 244
v -0.124253 6.305487 1.179838
v -0.111425 6.309422 1.198908
v -0.162422 6.318784 1.209375
v -0.148938 6.304711 1.229016
v -0.148949 6.302279 1.187514
v -0.130061 6.294016 1.221101
v -0.163773 6.267433 1.167535
v -0.124438 6.247118 1.173601
v -0.118049 6.283948 1.173003
v -0.146159 6.268942 1.233935
v -0.171639 6.271203 1.223945
v -0.181802 6.282785 1.192672
v -0.173222 6.239050 1.202490
v -0.127873 6.246555 1.208654
v -0.112643 6.276414 1.205056
f 251 253 252
f 253 249 245
f 248 255 254
f 255 248 247
f 255 247 256
f 256 249 251
f 256 257 255
f 259 252 253
f 259 245 246
f 250 254 258
f 258 259 250
f 254 255 257
f 253 251 249
f 256 247 249
f 257 251 258
f 258 251 252
f 258 252 259
f 250 259 246
f 259 253 245
f 250 248 254
f 251 257 256
f 254 257 258
v -0.101913 6.305745 1.237657
v -0.141204 6.315136 1.260427
v -0.101283 6.294492 1.260197
v -0.129842 6.299155 1.230631
v -0.141100 6.304500 1.238200
v -0.116808 6.290216 1.265707
v -0.155887 6.261955 1.222544
v -0.145462 6.236977 1.223798
v -0.130583 6.266847 1.218422
v -0.139520 6.259967 1.273954
v -0.159841 6.254839 1.243216
v -0.121862 6.247156 1.277803
v -0.136771 6.219405 1.241429
v -0.111289 6.236089 1.265363
v -0.107425 6.277892 1.234866
f 263 274 268
f 265 269 271
f 270 264 266
f 271 269 272
f 263 266 264
f 267 272 270
f 267 270 266
f 273 268 274
f 262 274 260
f 265 271 273
f 266 268 267
f 268 266 263
f 263 260 274
f 265 261 269
f 270 261 264
f 269 261 270
f 270 272 269
f 273 271 272
f 273 272 268
f 262 273 274
f 268 272 267
f 273 262 265
v -0.071487 6.301568 1.252966
v -0.096686 6.311073 1.297319
v -0.060024 6.293960 1.277104
v -0.098040 6.291045 1.263421
v -0.105800 6.296600 1.276900
v -0.072085 6.288914 1.290132
v -0.113960 6.231364 1.268221
v -0.099701 6.218032 1.274776
v -0.118803 6.245861 1.274732
v -0.080705 6.270586 1.251439
v -0.067757 6.251911 1.307292
v -0.104863 6.250777 1.300752
v -0.072904 6.220336 1.290775
v -0.056702 6.257303 1.277783
v -0.063136 6.229127 1.286735
f 282 281 284
f 278 284 281
f 286 279 283
f 278 283 279
f 287 286 282
f 281 286 283
f 277 284 275
f 280 285 288
f 288 285 289
f 288 282 284
f 287 282 289
f 281 283 278
f 278 275 284
f 280 276 285
f 286 285 276
f 286 276 279
f 286 287 285
f 281 282 286
f 288 289 282
f 277 288 284
f 288 277 280
f 289 285 287
v -0.030839 6.309148 1.275625
v -0.032406 6.319575 1.310562
v -0.046700 6.315500 1.311200
v -0.005275 6.300979 1.282672
v -0.051987 6.295093 1.294361
v -0.010441 6.295273 1.297809
v -0.066792 6.247418 1.295013
v -0.063382 6.223624 1.288068
v -0.038424 6.271147 1.269451
v -0.006020 6.248419 1.316155
v -0.045738 6.264740 1.318351
v -0.000775 6.216954 1.294539
v -0.013193 6.207705 1.296333
v -0.053409 6.210823 1.296853
v -0.000351 6.257577 1.279035
f 294 298 296
f 300 294 296
f 301 299 302
f 297 303 296
f 303 297 302
f 304 297 298
f 293 298 290
f 295 299 304
f 304 299 301
f 297 296 298
f 302 297 301
f 294 290 298
f 295 291 299
f 300 299 291
f 300 291 292
f 300 292 294
f 300 303 299
f 303 302 299
f 304 301 297
f 293 304 298
f 304 293 295
f 303 300 296
o gum
v 0.000000 6.067376 1.268827
v 0.034091 6.068675 1.260847
v 0.049827 6.075467 1.255111
v 0.080843 6.085376 1.236125
v 0.101755 6.091072 1.221650
v 0.113010 6.108100 1.189287
v 0.143903 6.186322 1.228540
v 0.144923 6.127777 1.134970
v 0.174713 6.148280 1.070296
v 0.192559 6.161529 1.039102
v 0.198393 6.181247 0.965482
v 0.221064 6.250479 0.984544
v 0.201436 6.215693 1.107561
v 0.188532 6.226284 1.137552
v 0.171693 6.194629 1.178167
v 0.083335 6.151002 1.284113
v 0.050846 6.161613 1.292355
v 0.021540 6.148800 1.298949
v 0.000000 6.165957 1.288980
v 0.034775 6.173425 1.231588
v 0.121807 6.221511 1.156252
v 0.092462 6.187938 1.194717
v 0.122758 6.236715 0.974616
v 0.000000 6.168427 1.242212
v 0.163815 6.146295 1.093036
v 0.054403 6.114757 0.991183
v -0.000000 6.140701 1.133738
v 0.055900 6.109600 0.979300
v 0.000000 6.137068 1.053360
v 0.063134 6.141253 1.189088
v 0.121541 6.132364 0.987843
v 0.091212 6.149409 1.107101
v 0.117830 6.213654 1.070702
v 0.129128 6.190722 0.991378
v 0.131800 6.187300 0.975000
v 0.208162 6.252118 1.044288
v 0.139288 6.168573 1.246797
v 0.162001 6.217574 1.175656
v 0.205500 6.262400 0.979000
v 0.097362 6.179474 1.268229
v 0.069526 6.181982 1.224103
v 0.138122 6.253566 1.031525
v 0.124994 6.233200 0.992947
v 0.126839 6.234601 1.102118
v 0.000000 6.361995 1.336634
v 0.025718 6.367554 1.330395
v 0.069951 6.368612 1.318345
v 0.111569 6.373568 1.278921
v 0.137376 6.380480 1.249474
v 0.153800 6.384450 1.198469
v 0.199315 6.311564 1.164811
v 0.172564 6.390527 1.168392
v 0.181930 6.393502 1.136098
v 0.201742 6.398785 1.096405
v 0.221404 6.331391 1.011234
v 0.201175 6.418914 0.988918
v 0.209501 6.378633 0.991791
v 0.206857 6.320749 0.982947
v 0.209915 6.314234 1.053820
v 0.195753 6.305498 1.127335
v 0.179095 6.292682 1.183869
v 0.174116 6.295072 1.221226
v 0.150702 6.298397 1.268829
v 0.113674 6.265467 1.270735
v 0.101437 6.280781 1.309450
v 0.031013 6.273304 1.326542
v 0.119529 6.297563 1.167172
v 0.053022 6.284739 1.250308
v 0.102662 6.292451 1.197828
v 0.138259 6.340760 0.980843
v 0.169334 6.344645 1.186963
v 0.073945 6.412664 0.990605
v 0.048379 6.396383 1.108669
v 0.098954 6.348667 1.117196
v 0.105200 6.384100 0.994200
v 0.088457 6.290704 1.221523
v 0.058739 6.258952 1.308025
v 0.130585 6.305957 1.125273
v 0.007874 6.288412 1.265859
v 0.210000 6.383100 0.978100
v 0.108700 6.386800 0.979100
v 0.135275 6.319685 1.055677
v 0.000000 6.402744 1.100506
v 0.037339 6.353438 1.209793
v 0.018100 6.413300 0.999500
v 0.000000 6.329440 1.253497
v 0.019300 6.415100 0.987800
v -0.034091 6.068675 1.260847
v -0.049827 6.075467 1.255111
v -0.080843 6.085376 1.236125
v -0.101755 6.091072 1.221650
v -0.113010 6.108100 1.189287
v -0.144923 6.127777 1.134970
v -0.174713 6.148280 1.070296
v -0.192559 6.161529 1.039102
v -0.198393 6.181247 0.965482
v -0.221064 6.250479 0.984544
v -0.208162 6.252118 1.044288
v -0.201436 6.215693 1.107561
v -0.188532 6.226284 1.137553
v -0.171693 6.194629 1.178167
v -0.143903 6.186322 1.228540
v -0.139288 6.168573 1.246797
v -0.083335 6.151002 1.284113
v -0.021540 6.148800 1.298949
v -0.034775 6.173425 1.231588
v -0.121807 6.221511 1.156252
v -0.092462 6.187938 1.194717
v -0.122758 6.236715 0.974616
v -0.069526 6.181982 1.224103
v -0.163815 6.146295 1.093036
v -0.054403 6.114757 0.991183
v -0.055900 6.109600 0.979300
v 0.018460 6.118690 1.221166
v -0.027677 6.126591 1.218938
v -0.121541 6.132364 0.987843
v -0.087223 6.145816 1.114089
v -0.117830 6.213654 1.070702
v -0.129128 6.190722 0.991378
v -0.067047 6.148510 1.196847
v -0.131800 6.187300 0.975000
v -0.162001 6.217574 1.175656
v -0.205500 6.262400 0.979000
v -0.050846 6.161613 1.292355
v -0.097362 6.179474 1.268229
v -0.138122 6.253566 1.031525
v -0.124994 6.233200 0.992947
v -0.126839 6.234601 1.102117
v 0.000000 6.110256 0.986152
v -0.031013 6.273304 1.326542
v -0.025718 6.367554 1.330395
v -0.069951 6.368612 1.318345
v -0.111569 6.373568 1.278921
v -0.150702 6.298397 1.268829
v -0.137376 6.380480 1.249474
v -0.153800 6.384450 1.198469
v -0.169334 6.344645 1.186963
v -0.199315 6.311564 1.164811
v -0.172564 6.390527 1.168392
v -0.195753 6.305498 1.127335
v -0.181930 6.393502 1.136098
v -0.201742 6.398785 1.096405
v -0.221405 6.331391 1.011234
v -0.201175 6.418914 0.988918
v -0.209501 6.378633 0.991791
v -0.206857 6.320749 0.982947
v -0.209915 6.314234 1.053821
v -0.179095 6.292682 1.183869
v -0.174116 6.295072 1.221226
v -0.113674 6.265467 1.270735
v -0.101437 6.280781 1.309450
v -0.119529 6.297563 1.167173
v -0.138259 6.340760 0.980843
v -0.102662 6.292451 1.197828
v -0.073132 6.286128 1.237742
v -0.135275 6.319685 1.055677
v 0.000000 6.263401 1.315109
v -0.042066 6.349411 1.215744
v -0.073945 6.412664 0.990605
v -0.048379 6.396383 1.108670
v -0.098954 6.348667 1.117196
v -0.105200 6.384100 0.994200
v -0.130585 6.305957 1.125273
v -0.058739 6.258953 1.308026
v -0.021761 6.289888 1.261227
v -0.210000 6.383100 0.978100
v -0.108700 6.386800 0.979100
v -0.017537 6.414267 0.998180
v -0.001628 6.376235 1.168413
v -0.019300 6.415100 0.987800
f 307 321 306
f 310 319 311
f 318 319 317
f 310 311 341
f 312 317 319
f 314 317 313
f 315 316 340
f 334 331 418
f 336 333 334
f 335 333 336
f 337 336 348
f 348 336 326
f 418 328 324
f 338 335 337
f 347 338 337
f 320 321 307
f 341 308 309
f 342 311 319
f 324 322 321
f 342 325 311
f 311 326 344
f 327 340 343
f 318 348 342
f 317 348 318
f 344 324 321
f 322 328 323
f 340 348 317
f 346 337 348
f 326 334 345
f 334 324 345
f 327 347 346
f 367 353 352
f 355 364 375
f 369 368 367
f 383 372 381
f 349 370 350
f 370 351 350
f 353 366 354
f 354 375 356
f 375 357 356
f 359 360 358
f 378 376 379
f 378 388 377
f 383 390 372
f 372 390 380
f 373 380 378
f 358 364 363
f 353 367 366
f 361 359 362
f 369 367 352
f 351 370 381
f 375 366 365
f 369 381 372
f 366 380 373
f 366 373 371
f 368 380 367
f 363 382 386
f 365 382 355
f 359 374 362
f 363 374 359
f 371 373 378
f 377 388 387
f 377 387 376
f 379 376 385
f 428 393 392
f 396 405 397
f 405 404 403
f 399 403 402
f 305 409 392
f 395 407 396
f 397 403 415
f 415 403 398
f 403 399 398
f 399 402 400
f 420 333 416
f 421 331 333
f 420 416 417
f 422 421 420
f 424 419 421
f 412 424 421
f 328 419 410
f 431 423 425
f 416 333 433
f 428 408 393
f 394 408 429
f 394 407 395
f 407 429 406
f 401 402 427
f 409 410 428
f 402 413 427
f 429 410 414
f 409 328 410
f 406 412 411
f 429 414 412
f 402 432 430
f 426 411 432
f 411 412 432
f 410 424 414
f 430 422 431
f 436 437 455
f 439 438 437
f 444 442 441
f 445 446 444
f 454 455 438
f 349 434 461
f 436 434 435
f 445 441 443
f 448 447 446
f 463 465 466
f 459 390 469
f 390 383 469
f 457 465 460
f 438 455 437
f 452 456 453
f 453 459 438
f 444 467 442
f 459 454 438
f 451 467 444
f 467 452 442
f 459 469 468
f 457 447 450
f 457 451 447
f 458 462 459
f 467 465 456
f 464 473 462
f 387 464 463
f 306 321 322
f 310 312 319
f 318 342 319
f 314 340 317
f 305 306 322
f 308 320 307
f 309 310 341
f 312 329 317
f 329 313 317
f 314 315 340
f 335 330 333
f 334 333 331
f 335 332 330
f 337 335 336
f 326 336 334
f 347 339 338
f 330 433 333
f 322 323 305
f 308 344 320
f 341 344 308
f 341 311 344
f 316 343 340
f 344 321 320
f 327 346 340
f 344 345 324
f 322 324 328
f 311 325 326
f 344 326 345
f 340 346 348
f 342 348 325
f 325 348 326
f 334 418 324
f 346 347 337
f 351 369 352
f 357 364 358
f 380 368 372
f 349 461 370
f 366 375 354
f 375 364 357
f 382 378 386
f 363 359 358
f 359 361 360
f 380 390 388
f 378 377 376
f 378 380 388
f 374 378 379
f 374 386 378
f 387 388 473
f 388 390 473
f 389 387 472
f 351 381 369
f 375 365 355
f 365 366 371
f 366 367 380
f 461 383 370
f 364 355 382
f 363 364 382
f 365 371 382
f 369 372 368
f 370 383 381
f 363 386 374
f 361 384 360
f 382 371 378
f 376 387 389
f 389 391 376
f 409 428 392
f 396 406 405
f 405 426 404
f 393 408 394
f 396 407 406
f 397 405 403
f 400 402 401
f 419 418 331
f 421 419 331
f 420 421 333
f 422 432 421
f 432 412 421
f 328 418 419
f 423 422 420
f 431 422 423
f 305 323 409
f 394 429 407
f 426 405 406
f 408 428 429
f 426 406 411
f 406 429 412
f 402 430 413
f 404 426 432
f 403 404 432
f 429 428 410
f 409 323 328
f 402 403 432
f 430 432 422
f 412 414 424
f 410 419 424
f 413 430 431
f 349 435 434
f 439 440 453
f 440 441 453
f 440 443 441
f 445 444 441
f 460 465 467
f 446 447 451
f 448 449 447
f 463 464 465
f 465 464 462
f 466 465 457
f 459 462 390
f 458 465 462
f 446 451 444
f 455 468 436
f 439 453 438
f 442 452 441
f 449 450 447
f 436 468 434
f 441 452 453
f 455 459 468
f 453 458 459
f 434 469 461
f 453 456 458
f 451 460 467
f 467 456 452
f 454 459 455
f 468 469 434
f 457 460 451
f 448 470 449
f 456 465 458
f 464 387 473
f 462 473 390
f 472 387 463
f 466 471 463
f 469 383 461
f 463 474 472
o tongue
v 0.000000 6.557430 1.391208
v 0.000000 6.578677 1.394065
v -0.097249 6.608747 1.384197
v -0.051126 6.542552 1.358598
v -0.070470 6.574198 1.285895
v 0.018915 6.699261 1.164030
v 0.052465 6.503911 0.631141
v -0.000000 6.642164 0.861348
v -0.004267 6.696078 1.019166
v 0.000000 6.540900 1.121700
v 0.000000 6.572600 1.177500
v -0.001263 6.463452 1.060897
v 0.000000 6.292100 0.790800
v -0.000000 6.355171 0.858348
v -0.236414 6.418185 0.688308
v -0.234136 6.485347 0.645548
v -0.206996 6.509057 0.643526
v -0.082182 6.507802 0.632322
v -0.104685 6.341448 0.744283
v -0.210400 6.355800 0.737600
v -0.115262 6.429071 0.820745
v -0.107933 6.661016 0.845606
v -0.220672 6.450797 0.823672
v -0.255500 6.544700 0.890200
v -0.251483 6.651648 0.927782
v -0.226500 6.654900 0.865400
v -0.120725 6.719781 1.008245
v -0.173588 6.700252 1.190557
v -0.182500 6.599300 1.185900
v -0.203200 6.630200 1.187300
v -0.226594 6.680399 1.110033
v -0.217834 6.720267 1.026169
v -0.205377 6.581416 1.099124
v -0.229505 6.627981 1.095416
v -0.089072 6.564002 1.088341
v -0.068698 6.583889 1.172352
v -0.166315 6.586196 1.291476
v -0.056804 6.583027 1.228467
v -0.183467 6.610223 1.290706
v -0.185511 6.643715 1.281321
v -0.157510 6.671594 1.274607
v -0.096162 6.545689 1.375910
v -0.064335 6.398227 0.821401
v -0.056000 6.501500 1.041600
v 0.236414 6.418185 0.688308
v 0.234136 6.485348 0.645548
v 0.206997 6.509057 0.643526
v 0.104685 6.341449 0.744283
v 0.210400 6.355800 0.737600
v 0.115262 6.429072 0.820745
v 0.107933 6.661016 0.845606
v 0.220672 6.450798 0.823673
v 0.255500 6.544700 0.890200
v 0.255800 6.618000 0.879100
v 0.226500 6.654900 0.865400
v 0.111005 6.714091 0.988008
v 0.088703 6.713153 1.081160
v 0.183385 6.602600 1.223726
v 0.203200 6.630200 1.187300
v 0.226594 6.680399 1.110034
v 0.217834 6.720267 1.026169
v 0.239700 6.683000 1.005300
v 0.205377 6.581417 1.099124
v 0.229505 6.627981 1.095417
v 0.089072 6.564002 1.088341
v 0.068698 6.583889 1.172353
v 0.169609 6.691872 1.218572
v 0.073555 6.582619 1.259900
v 0.183467 6.610223 1.290706
v 0.185511 6.643716 1.281321
v 0.159694 6.666580 1.279580
v 0.010618 6.648534 1.330355
v 0.104007 6.548268 1.368867
v 0.067332 6.540300 1.372153
v 0.103498 6.577789 1.383142
v 0.094795 6.610042 1.383953
v 0.064335 6.398227 0.821401
f 507 504 508
f 505 502 506
f 502 501 506
f 518 495 517
f 503 509 510
f 512 503 510
f 503 513 504
f 504 514 505
f 515 480 502
f 495 507 497
f 514 515 502
f 478 516 511
f 511 516 513
f 513 477 514
f 516 476 477
f 514 477 515
f 501 480 483
f 496 483 482
f 484 518 486
f 495 494 493
f 496 491 500
f 498 490 489
f 499 491 490
f 507 498 497
f 508 499 498
f 501 500 506
f 510 484 485
f 485 512 510
f 493 517 495
f 492 482 481
f 493 488 517
f 486 517 488
f 537 533 532
f 538 534 533
f 535 534 536
f 531 541 535
f 486 524 539
f 532 539 537
f 532 542 540
f 533 544 543
f 534 541 544
f 537 524 526
f 515 546 541
f 544 550 549
f 549 476 475
f 549 548 547
f 546 550 545
f 532 543 547
f 542 547 548
f 530 483 531
f 525 483 530
f 484 486 539
f 519 526 523
f 524 523 526
f 521 525 529
f 527 520 528
f 528 521 529
f 526 519 527
f 537 527 538
f 536 529 535
f 538 528 536
f 529 530 535
f 484 540 485
f 485 542 512
f 512 542 479
f 479 548 478
f 477 476 550
f 551 522 524
f 481 482 525
f 488 522 551
f 519 521 520
f 481 523 522
f 493 481 487
f 492 494 491
f 489 491 494
f 507 503 504
f 508 504 505
f 505 499 508
f 506 499 505
f 518 509 495
f 503 507 509
f 512 511 503
f 503 511 513
f 504 513 514
f 505 514 502
f 495 509 507
f 512 479 511
f 513 516 477
f 516 475 476
f 477 546 515
f 479 478 511
f 484 509 518
f 489 494 497
f 496 492 491
f 495 497 494
f 498 499 490
f 499 500 491
f 497 498 489
f 507 508 498
f 499 506 500
f 501 496 500
f 510 509 484
f 478 548 516
f 475 516 548
f 502 480 501
f 496 501 483
f 492 496 482
f 493 487 488
f 486 518 517
f 537 538 533
f 534 535 541
f 538 536 534
f 531 480 541
f 486 551 524
f 535 530 531
f 532 540 539
f 532 533 543
f 533 534 544
f 480 515 541
f 537 539 524
f 544 541 545
f 547 543 549
f 543 544 549
f 550 476 549
f 549 475 548
f 541 546 545
f 544 545 550
f 542 532 547
f 525 482 483
f 521 481 525
f 524 522 523
f 527 519 520
f 528 520 521
f 537 526 527
f 536 528 529
f 538 527 528
f 529 525 530
f 484 539 540
f 485 540 542
f 479 542 548
f 546 477 550
f 488 487 522
f 486 488 551
f 531 483 480
f 519 523 521
f 481 521 523
f 522 487 481
f 493 492 481
f 492 493 494
f 489 490 491
